HIERARCHY
ROOT ui
{
	 OFFSET 0 0 0
	 CHANNELS 3 XPosition YPosition Z Position
	 EndSite
	 {
	 OFFSET 0 -1 0
	 }
}
ROOT li
{
	 OFFSET 0 0 0
	 CHANNELS 3 XPosition YPosition Z Position
	 EndSite
	 {
	 OFFSET 0 -1 0
	 }
}
ROOT ul
{
	 OFFSET 0 0 0
	 CHANNELS 3 XPosition YPosition Z Position
	 EndSite
	 {
	 OFFSET 0 -1 0
	 }
}
ROOT ll
{
	 OFFSET 0 0 0
	 CHANNELS 3 XPosition YPosition Z Position
	 EndSite
	 {
	 OFFSET 0 -1 0
	 }
}
ROOT tt
{
	 OFFSET 0 0 0
	 CHANNELS 3 XPosition YPosition Z Position
	 EndSite
	 {
	 OFFSET 0 -1 0
	 }
}
ROOT tb
{
	 OFFSET 0 0 0
	 CHANNELS 3 XPosition YPosition Z Position
	 EndSite
	 {
	 OFFSET 0 -1 0
	 }
}
ROOT td
{
	 OFFSET 0 0 0
	 CHANNELS 3 XPosition YPosition Z Position
	 EndSite
	 {
	 OFFSET 0 -1 0
	 }
}
ROOT v
{
	 OFFSET 0 0 0
	 CHANNELS 3 XPosition YPosition Z Position
	 EndSite
	 {
	 OFFSET 0 -1 0
	 }
}
ROOT bn
{
	 OFFSET 0 0 0
	 CHANNELS 3 XPosition YPosition Z Position
	 EndSite
	 {
	 OFFSET 0 -1 0
	 }
}
MOTION
Frames: 10
Frame Time: 0.002
0.001626466989517212	-0.0010713210105895996	0		0.49412490844726564	-2.372124755859375	0		-1.134431396484375	0.055192405700683594	0		-0.7386722412109376	-2.53684619140625	0		1.4304154052734375	-0.77574755859375	0		3.05496240234375	0.07576802062988282	0		4.69054345703125	0.27289892578125	0		5.57834521484375	0.18055853271484376	0		-0.25674349975585936	5.93379638671875	0		
-0.0380361328125	-0.008644685745239258	0		0.5174505615234375	-2.377063232421875	0		-1.1389930419921874	0.05190924835205078	0		-0.6734260864257813	-2.54563916015625	0		1.426845703125	-0.7781419677734375	0		3.062933349609375	0.09707616424560547	0		4.680076171875	0.27353961181640624	0		5.5809599609375	0.19320921325683593	0		-0.2570151672363281	5.93439599609375	0		
6.733580231666565E-4	9.266699850559235E-5	0		0.4909398193359375	-2.3739521484375	0		-1.1394652099609375	0.0525235595703125	0		-0.7418475952148438	-2.53758642578125	0		1.42634375	-0.7776199340820312	0		3.053507568359375	0.09973158264160156	0		4.699607421875	0.27351617431640624	0		5.57765966796875	0.18190145874023436	0		-0.2582540283203125	5.936	0		
-0.04976653289794922	0.002717281103134155	0		0.47631924438476564	-2.376116943359375	0		-1.135851318359375	0.05703054428100586	0		-0.7316085815429687	-2.5462412109375	0		1.425842529296875	-0.7771198120117188	0		3.0370419921875	0.10051567840576171	0		4.68397607421875	0.26622064208984375	0		5.5802783203125	0.19447056579589844	0		-0.2575321044921875	5.9355400390625	0		
0.02461674690246582	-0.004363554000854492	0		0.47884759521484377	-2.371671875	0		-1.125107421875	0.06736086273193359	0		-0.7270438842773438	-2.539795654296875	0		1.4335567626953125	-0.766818115234375	0		3.07630810546875	0.0880761947631836	0		4.68834228515625	0.2584725341796875	0		5.57993994140625	0.19503955078125	0		-0.22840681457519532	5.95344970703125	0		
0.0023304400444030763	0.004607384204864502	0		0.5183118896484376	-2.371050048828125	0		-1.132717529296875	0.061053363800048825	0		-0.705516845703125	-2.535744140625	0		1.431001953125	-0.7693253173828125	0		3.05621826171875	0.10589324188232421	0		4.67823486328125	0.27501712036132814	0		5.58258154296875	0.20925529479980468	0		-0.2305930633544922	5.95700048828125	0		
0.009597396850585938	-0.008092824935913085	0		0.46487774658203124	-2.365456787109375	0		-1.137230224609375	0.058648635864257816	0		-0.7101405639648437	-2.539163330078125	0		1.4243748779296874	-0.7757742919921875	0		3.04753564453125	0.09543238830566406	0		4.687791015625	0.27510977172851564	0		5.57632177734375	0.1840955810546875	0		-0.25828549194335937	5.93706494140625	0		
0.009162041664123535	-0.0076572799682617185	0		0.5141806640625	-2.374114013671875	0		-1.141748779296875	0.05520911407470703	0		-0.7358258666992188	-2.54616259765625	0		1.423914306640625	-0.7753851928710938	0		3.04108349609375	0.09489804077148438	0		4.682193359375	0.26750161743164064	0		5.5760087890625	0.18453936767578125	0		-0.2585257873535156	5.93750927734375	0		
-0.002036911964416504	0.0029786179065704344	0		0.4736777648925781	-2.373864013671875	0		-1.1380791015625	0.059557483673095706	0		-0.7342789916992187	-2.543782958984375	0		1.423472900390625	-0.7750283203125	0		3.048407470703125	0.08303490447998046	0		4.68178369140625	0.2677581787109375	0		5.5757080078125	0.18494149780273436	0		-0.23131277465820313	5.9583291015625	0		
0.008344195365905761	-0.006892356872558594	0		0.47525347900390624	-2.371556396484375	0		-1.131327392578125	0.06680130767822266	0		-0.7655921020507812	-2.535727783203125	0		1.429201171875	-0.76783544921875	0		3.04146630859375	0.10445999908447266	0		4.67656591796875	0.2760967407226563	0		5.57838134765625	0.19726214599609376	0		-0.23056576538085938	5.9576787109375	0		
